<?xml version="1.0" standalone="no"?>
<!DOCTYPE svg PUBLIC "-//W3C//DTD SVG 20010904//EN"
 "http://www.w3.org/TR/2001/REC-SVG-20010904/DTD/svg10.dtd">
<svg version="1.0" xmlns="http://www.w3.org/2000/svg"
 width="421.000000pt" height="421.000000pt" viewBox="0 0 421.000000 421.000000"
 preserveAspectRatio="xMidYMid meet">
<metadata>
Created by potrace 1.14, written by Peter Selinger 2001-2017
</metadata>
<g transform="translate(0.000000,421.000000) scale(0.100000,-0.100000)"
fill="#000000" stroke="none">
<path d="M0 2105 l0 -2105 2105 0 2105 0 0 2105 0 2105 -362 -1 c-200 0 -356
-3 -348 -6 8 -4 47 -21 85 -39 l70 -34 -96 0 c-69 0 -100 4 -108 13 -6 8 -8
17 -4 20 3 4 1 7 -5 7 -7 0 -12 9 -12 20 0 20 -10 20 -1715 20 l-1715 0 0
-2105z"/>
</g>
</svg>
